<?xml version="1.0" encoding="UTF-8" standalone="no"?>
<svg
   t="1741047797424"
   class="icon"
   viewBox="0 0 1024 1024"
   version="1.1"
   p-id="2495"
   width="200"
   height="200"
   id="svg2"
   sodipodi:docname="Jollyup installer.svg"
   inkscape:version="1.3.2 (091e20e, 2023-11-25, custom)"
   xmlns:inkscape="http://www.inkscape.org/namespaces/inkscape"
   xmlns:sodipodi="http://sodipodi.sourceforge.net/DTD/sodipodi-0.dtd"
   xmlns="http://www.w3.org/2000/svg"
   xmlns:svg="http://www.w3.org/2000/svg">
  <defs
     id="defs2" />
  <sodipodi:namedview
     id="namedview2"
     pagecolor="#ffffff"
     bordercolor="#000000"
     borderopacity="0.25"
     inkscape:showpageshadow="2"
     inkscape:pageopacity="0.0"
     inkscape:pagecheckerboard="0"
     inkscape:deskcolor="#d1d1d1"
     inkscape:zoom="3.675"
     inkscape:cx="99.863946"
     inkscape:cy="100"
     inkscape:window-width="1920"
     inkscape:window-height="991"
     inkscape:window-x="-9"
     inkscape:window-y="-9"
     inkscape:window-maximized="1"
     inkscape:current-layer="svg2" />
  <path
     d="M1023.999573 298.666969H0v-0.426667L159.829267 18.816419A37.461318 37.461318 0 0 1 192.426586 0.000427h639.274401c13.397328 0 25.813323 7.167997 32.511986 18.858658L1023.999573 297.984303v0.725333V298.666969z m0 85.333298v602.538415a37.461318 37.461318 0 0 1-37.461317 37.461318H37.461318A37.461318 37.461318 0 0 1 0 986.538682V384.000267h1023.999573z"
     fill="#1677FF"
     p-id="2496"
     id="path1"
     style="fill:#3451b2;fill-opacity:1" />
  <path
     d="M347.733188 684.288142a12.501328 12.501328 0 0 0 2.730666 13.610661l152.746603 152.703936c4.821331 4.863998 12.757328 4.863998 17.621326 0l152.746603-152.746603a12.501328 12.501328 0 0 0-8.874663-21.290658h-107.007955v-206.933247a12.501328 12.501328 0 0 0-12.458662-12.501328H478.719801a12.501328 12.501328 0 0 0-12.458662 12.501328v206.933247H359.253184a12.501328 12.501328 0 0 0-11.519996 7.679997z"
     fill="#FFFFFF"
     p-id="2497"
     id="path2" />
</svg>
